<svg width="117" height="41" viewBox="0 0 117 41" fill="none" xmlns="http://www.w3.org/2000/svg">
<path d="M111.66 32.1973V7.41016H109.664V32.1973H111.66Z" fill="#C9C9C9"/>
<g filter="url(#filter0_d_1_100)">
<path d="M12.8887 10.499H10.9551V20.6719C10.9551 23.9805 13.2646 26.3652 17.1104 26.3652C20.9561 26.3652 23.2656 23.9805 23.2656 20.6719V10.499H21.332V20.543C21.332 22.8848 19.7959 24.582 17.1104 24.582C14.4248 24.582 12.8887 22.8848 12.8887 20.543V10.499ZM32.1894 26V13.9795H32.3612L40.7724 26H42.6523V10.499H40.7402V22.5625H40.5683L32.1571 10.499H30.2773V26H32.1894ZM59.7616 26H61.7918L56.077 10.499H54.1649L48.45 26H50.4803L52.0379 21.5635H58.2039L59.7616 26ZM55.035 13.002H55.2069L57.6346 19.9199H52.6073L55.035 13.002ZM67.5896 10.499V26H72.907C77.5154 26 80.2224 23.1318 80.2224 18.2441C80.2224 13.3672 77.5046 10.499 72.907 10.499H67.5896ZM69.5232 12.2393H72.7781C76.2156 12.2393 78.2459 14.4736 78.2459 18.2656C78.2459 22.0469 76.2371 24.2598 72.7781 24.2598H69.5232V12.2393ZM95.9782 26H98.0085L92.2936 10.499H90.3815L84.6667 26H86.697L88.2546 21.5635H94.4206L95.9782 26ZM91.2516 13.002H91.4235L93.8512 19.9199H88.8239L91.2516 13.002ZM105.095 26.1074C105.869 26.1074 106.492 25.4736 106.492 24.7109C106.492 23.9375 105.869 23.3145 105.095 23.3145C104.333 23.3145 103.699 23.9375 103.699 24.7109C103.699 25.4736 104.333 26.1074 105.095 26.1074Z" fill="#404040"/>
</g>
<defs>
<filter id="filter0_d_1_100" x="0.955078" y="4.49902" width="115.537" height="35.8662" filterUnits="userSpaceOnUse" color-interpolation-filters="sRGB">
<feFlood flood-opacity="0" result="BackgroundImageFix"/>
<feColorMatrix in="SourceAlpha" type="matrix" values="0 0 0 0 0 0 0 0 0 0 0 0 0 0 0 0 0 0 127 0" result="hardAlpha"/>
<feOffset dy="4"/>
<feGaussianBlur stdDeviation="5"/>
<feComposite in2="hardAlpha" operator="out"/>
<feColorMatrix type="matrix" values="0 0 0 0 0 0 0 0 0 0 0 0 0 0 0 0 0 0 0.1 0"/>
<feBlend mode="normal" in2="BackgroundImageFix" result="effect1_dropShadow_1_100"/>
<feBlend mode="normal" in="SourceGraphic" in2="effect1_dropShadow_1_100" result="shape"/>
</filter>
</defs>
</svg>
